<svg width="188" height="225" viewBox="0 0 188 225" fill="none" xmlns="http://www.w3.org/2000/svg">
<path d="M105.419 190.572C104.725 190.572 104.129 190.335 103.631 189.86C103.134 189.384 102.885 188.815 102.885 188.152C102.885 187.489 103.134 186.919 103.631 186.444C104.129 185.969 104.725 185.732 105.419 185.732C106.114 185.732 106.71 185.969 107.207 186.444C107.704 186.919 107.953 187.489 107.953 188.152C107.953 188.591 107.836 188.995 107.601 189.362C107.376 189.73 107.071 190.025 106.686 190.249C106.311 190.465 105.888 190.572 105.419 190.572Z" fill="#CC6FED"/>
<path d="M129.23 174.33L126.246 175.137C126.058 174.662 125.781 174.2 125.415 173.752C125.059 173.295 124.571 172.918 123.951 172.623C123.332 172.327 122.539 172.179 121.572 172.179C120.249 172.179 119.146 172.47 118.264 173.053C117.392 173.627 116.955 174.357 116.955 175.245C116.955 176.033 117.255 176.656 117.856 177.113C118.457 177.571 119.395 177.951 120.671 178.256L123.881 179.009C125.814 179.457 127.255 180.143 128.202 181.066C129.15 181.981 129.624 183.159 129.624 184.602C129.624 185.786 129.268 186.843 128.554 187.775C127.851 188.708 126.865 189.443 125.598 189.981C124.331 190.518 122.858 190.787 121.178 190.787C118.973 190.787 117.148 190.33 115.702 189.416C114.257 188.502 113.342 187.166 112.957 185.409L116.111 184.656C116.411 185.768 116.979 186.601 117.814 187.157C118.658 187.713 119.761 187.991 121.122 187.991C122.67 187.991 123.9 187.677 124.81 187.049C125.73 186.413 126.19 185.651 126.19 184.764C126.19 184.047 125.927 183.446 125.401 182.962C124.876 182.469 124.069 182.102 122.98 181.86L119.376 181.053C117.396 180.605 115.942 179.91 115.013 178.969C114.093 178.019 113.633 176.831 113.633 175.406C113.633 174.241 113.976 173.21 114.661 172.313C115.355 171.417 116.298 170.713 117.49 170.203C118.691 169.692 120.052 169.436 121.572 169.436C123.712 169.436 125.392 169.884 126.612 170.781C127.841 171.677 128.714 172.86 129.23 174.33Z" fill="#CC6FED"/>
<path d="M143.69 190.787C141.607 190.787 139.81 190.348 138.299 189.47C136.798 188.582 135.639 187.345 134.822 185.759C134.015 184.163 133.612 182.308 133.612 180.192C133.612 178.077 134.015 176.213 134.822 174.599C135.639 172.977 136.774 171.713 138.229 170.808C139.693 169.893 141.401 169.436 143.353 169.436C144.479 169.436 145.591 169.615 146.689 169.974C147.787 170.333 148.786 170.915 149.687 171.722C150.588 172.52 151.306 173.577 151.841 174.895C152.376 176.213 152.643 177.835 152.643 179.762V181.107H135.976V178.364H149.265C149.265 177.199 149.021 176.159 148.533 175.245C148.054 174.33 147.369 173.609 146.478 173.08C145.596 172.551 144.554 172.287 143.353 172.287C142.029 172.287 140.885 172.6 139.918 173.228C138.961 173.846 138.224 174.653 137.708 175.648C137.192 176.643 136.934 177.709 136.934 178.848V180.676C136.934 182.236 137.215 183.558 137.778 184.643C138.351 185.718 139.144 186.539 140.157 187.103C141.171 187.659 142.349 187.937 143.69 187.937C144.563 187.937 145.352 187.82 146.055 187.587C146.769 187.345 147.383 186.987 147.899 186.512C148.416 186.028 148.814 185.427 149.096 184.71L152.305 185.57C151.968 186.61 151.4 187.525 150.602 188.313C149.805 189.093 148.819 189.703 147.646 190.142C146.473 190.572 145.154 190.787 143.69 190.787Z" fill="#CC6FED"/>
<path d="M1 1V222.814V224H29.4331V125.548H125.395V99.4521H29.4331V27.0957H134.873V1H1Z" stroke="#CC6FED"/>
<path d="M187 224V2.18617V1H158.567V99.4521H62.6051V125.548H158.567V197.904H53.1274V224H187Z" stroke="#CC6FED"/>
</svg>
